%TF.GenerationSoftware,KiCad,Pcbnew,(5.1.6)-1*%
%TF.CreationDate,2020-07-27T10:52:52+09:00*%
%TF.ProjectId,gnss_logger,676e7373-5f6c-46f6-9767-65722e6b6963,rev?*%
%TF.SameCoordinates,Original*%
%TF.FileFunction,Legend,Top*%
%TF.FilePolarity,Positive*%
%FSLAX46Y46*%
G04 Gerber Fmt 4.6, Leading zero omitted, Abs format (unit mm)*
G04 Created by KiCad (PCBNEW (5.1.6)-1) date 2020-07-27 10:52:52*
%MOMM*%
%LPD*%
G01*
G04 APERTURE LIST*
%ADD10C,0.120000*%
%ADD11C,0.150000*%
G04 APERTURE END LIST*
D10*
%TO.C,U1*%
X115570000Y-97790000D02*
X115570000Y-133350000D01*
X115570000Y-133350000D02*
X125730000Y-133350000D01*
X125730000Y-133350000D02*
X125730000Y-97790000D01*
X125730000Y-97790000D02*
X115570000Y-97790000D01*
D11*
%TO.C,Q2*%
X133350000Y-107950000D02*
X130810000Y-107950000D01*
X130810000Y-107950000D02*
X130810000Y-115570000D01*
X130810000Y-115570000D02*
X133350000Y-115570000D01*
X133350000Y-115570000D02*
X133350000Y-107950000D01*
D10*
%TO.C,SW1*%
X138430000Y-80010000D02*
X135890000Y-80010000D01*
X138430000Y-87630000D02*
X138430000Y-80010000D01*
X135890000Y-87630000D02*
X138430000Y-87630000D01*
X135890000Y-80010000D02*
X135890000Y-87630000D01*
D11*
%TO.C,Q1*%
X133350000Y-100330000D02*
X130810000Y-100330000D01*
X130810000Y-100330000D02*
X130810000Y-107950000D01*
X130810000Y-107950000D02*
X133350000Y-107950000D01*
X133350000Y-107950000D02*
X133350000Y-100330000D01*
%TO.C,C1*%
X128270000Y-118110000D02*
X128270000Y-123190000D01*
X130810000Y-118110000D02*
X128270000Y-118110000D01*
X130810000Y-123190000D02*
X130810000Y-118110000D01*
X128270000Y-123190000D02*
X130810000Y-123190000D01*
%TO.C,F1*%
X140970000Y-74930000D02*
X135890000Y-74930000D01*
X140970000Y-77470000D02*
X140970000Y-74930000D01*
X135890000Y-77470000D02*
X140970000Y-77470000D01*
X135890000Y-74930000D02*
X135890000Y-77470000D01*
D10*
%TO.C,J2*%
X128270000Y-80010000D02*
X115570000Y-80010000D01*
X128270000Y-82550000D02*
X128270000Y-80010000D01*
X115570000Y-82550000D02*
X128270000Y-82550000D01*
X115570000Y-80010000D02*
X115570000Y-82550000D01*
%TO.C,J3*%
X133350000Y-77470000D02*
X133350000Y-74930000D01*
X133350000Y-74930000D02*
X120650000Y-74930000D01*
X120650000Y-74930000D02*
X120650000Y-77470000D01*
X120650000Y-77470000D02*
X133350000Y-77470000D01*
D11*
%TO.C,J4*%
X146050000Y-74930000D02*
X146050000Y-77470000D01*
X146050000Y-77470000D02*
X151130000Y-77470000D01*
X151130000Y-77470000D02*
X151130000Y-74930000D01*
X151130000Y-74930000D02*
X146050000Y-74930000D01*
D10*
%TO.C,J5*%
X143510000Y-135890000D02*
X143510000Y-100330000D01*
X140970000Y-135890000D02*
X143510000Y-135890000D01*
X140970000Y-100330000D02*
X140970000Y-135890000D01*
X143510000Y-100330000D02*
X140970000Y-100330000D01*
D11*
%TO.C,J6*%
X148590000Y-87630000D02*
X151130000Y-87630000D01*
X151130000Y-80010000D02*
X151130000Y-87630000D01*
X148590000Y-80010000D02*
X151130000Y-80010000D01*
X148590000Y-87630000D02*
X148590000Y-80010000D01*
D10*
%TO.C,J7*%
X156210000Y-135890000D02*
X158750000Y-135890000D01*
X158750000Y-135890000D02*
X158750000Y-100330000D01*
X158750000Y-100330000D02*
X156210000Y-100330000D01*
X156210000Y-100330000D02*
X156210000Y-135890000D01*
D11*
%TO.C,R1*%
X128270000Y-143510000D02*
X128270000Y-133350000D01*
X128270000Y-143510000D02*
X130810000Y-143510000D01*
X130810000Y-143510000D02*
X130810000Y-133350000D01*
X130810000Y-133350000D02*
X128270000Y-133350000D01*
%TO.C,R2*%
X125730000Y-87630000D02*
X125730000Y-85090000D01*
X115570000Y-87630000D02*
X125730000Y-87630000D01*
X115570000Y-85090000D02*
X115570000Y-87630000D01*
X115570000Y-85090000D02*
X125730000Y-85090000D01*
%TO.C,D1*%
X135151904Y-145232380D02*
X135151904Y-144232380D01*
X135390000Y-144232380D01*
X135532857Y-144280000D01*
X135628095Y-144375238D01*
X135675714Y-144470476D01*
X135723333Y-144660952D01*
X135723333Y-144803809D01*
X135675714Y-144994285D01*
X135628095Y-145089523D01*
X135532857Y-145184761D01*
X135390000Y-145232380D01*
X135151904Y-145232380D01*
X136675714Y-145232380D02*
X136104285Y-145232380D01*
X136390000Y-145232380D02*
X136390000Y-144232380D01*
X136294761Y-144375238D01*
X136199523Y-144470476D01*
X136104285Y-144518095D01*
X138191904Y-142406666D02*
X138668095Y-142406666D01*
X138096666Y-142692380D02*
X138430000Y-141692380D01*
X138763333Y-142692380D01*
%TO.C,U1*%
X117348095Y-94702380D02*
X117348095Y-95511904D01*
X117395714Y-95607142D01*
X117443333Y-95654761D01*
X117538571Y-95702380D01*
X117729047Y-95702380D01*
X117824285Y-95654761D01*
X117871904Y-95607142D01*
X117919523Y-95511904D01*
X117919523Y-94702380D01*
X118919523Y-95702380D02*
X118348095Y-95702380D01*
X118633809Y-95702380D02*
X118633809Y-94702380D01*
X118538571Y-94845238D01*
X118443333Y-94940476D01*
X118348095Y-94988095D01*
%TO.C,Q2*%
X130087619Y-110585238D02*
X130040000Y-110680476D01*
X129944761Y-110775714D01*
X129801904Y-110918571D01*
X129754285Y-111013809D01*
X129754285Y-111109047D01*
X129992380Y-111061428D02*
X129944761Y-111156666D01*
X129849523Y-111251904D01*
X129659047Y-111299523D01*
X129325714Y-111299523D01*
X129135238Y-111251904D01*
X129040000Y-111156666D01*
X128992380Y-111061428D01*
X128992380Y-110870952D01*
X129040000Y-110775714D01*
X129135238Y-110680476D01*
X129325714Y-110632857D01*
X129659047Y-110632857D01*
X129849523Y-110680476D01*
X129944761Y-110775714D01*
X129992380Y-110870952D01*
X129992380Y-111061428D01*
X129087619Y-110251904D02*
X129040000Y-110204285D01*
X128992380Y-110109047D01*
X128992380Y-109870952D01*
X129040000Y-109775714D01*
X129087619Y-109728095D01*
X129182857Y-109680476D01*
X129278095Y-109680476D01*
X129420952Y-109728095D01*
X129992380Y-110299523D01*
X129992380Y-109680476D01*
%TO.C,SW1*%
X135826666Y-90574761D02*
X135969523Y-90622380D01*
X136207619Y-90622380D01*
X136302857Y-90574761D01*
X136350476Y-90527142D01*
X136398095Y-90431904D01*
X136398095Y-90336666D01*
X136350476Y-90241428D01*
X136302857Y-90193809D01*
X136207619Y-90146190D01*
X136017142Y-90098571D01*
X135921904Y-90050952D01*
X135874285Y-90003333D01*
X135826666Y-89908095D01*
X135826666Y-89812857D01*
X135874285Y-89717619D01*
X135921904Y-89670000D01*
X136017142Y-89622380D01*
X136255238Y-89622380D01*
X136398095Y-89670000D01*
X136731428Y-89622380D02*
X136969523Y-90622380D01*
X137160000Y-89908095D01*
X137350476Y-90622380D01*
X137588571Y-89622380D01*
X138493333Y-90622380D02*
X137921904Y-90622380D01*
X138207619Y-90622380D02*
X138207619Y-89622380D01*
X138112380Y-89765238D01*
X138017142Y-89860476D01*
X137921904Y-89908095D01*
%TO.C,Q1*%
X129444761Y-103417619D02*
X129349523Y-103370000D01*
X129254285Y-103274761D01*
X129111428Y-103131904D01*
X129016190Y-103084285D01*
X128920952Y-103084285D01*
X128968571Y-103322380D02*
X128873333Y-103274761D01*
X128778095Y-103179523D01*
X128730476Y-102989047D01*
X128730476Y-102655714D01*
X128778095Y-102465238D01*
X128873333Y-102370000D01*
X128968571Y-102322380D01*
X129159047Y-102322380D01*
X129254285Y-102370000D01*
X129349523Y-102465238D01*
X129397142Y-102655714D01*
X129397142Y-102989047D01*
X129349523Y-103179523D01*
X129254285Y-103274761D01*
X129159047Y-103322380D01*
X128968571Y-103322380D01*
X130349523Y-103322380D02*
X129778095Y-103322380D01*
X130063809Y-103322380D02*
X130063809Y-102322380D01*
X129968571Y-102465238D01*
X129873333Y-102560476D01*
X129778095Y-102608095D01*
%TO.C,C1*%
X132437142Y-120816666D02*
X132484761Y-120864285D01*
X132532380Y-121007142D01*
X132532380Y-121102380D01*
X132484761Y-121245238D01*
X132389523Y-121340476D01*
X132294285Y-121388095D01*
X132103809Y-121435714D01*
X131960952Y-121435714D01*
X131770476Y-121388095D01*
X131675238Y-121340476D01*
X131580000Y-121245238D01*
X131532380Y-121102380D01*
X131532380Y-121007142D01*
X131580000Y-120864285D01*
X131627619Y-120816666D01*
X132532380Y-119864285D02*
X132532380Y-120435714D01*
X132532380Y-120150000D02*
X131532380Y-120150000D01*
X131675238Y-120245238D01*
X131770476Y-120340476D01*
X131818095Y-120435714D01*
%TO.C,F1*%
X138096666Y-78668571D02*
X137763333Y-78668571D01*
X137763333Y-79192380D02*
X137763333Y-78192380D01*
X138239523Y-78192380D01*
X139144285Y-79192380D02*
X138572857Y-79192380D01*
X138858571Y-79192380D02*
X138858571Y-78192380D01*
X138763333Y-78335238D01*
X138668095Y-78430476D01*
X138572857Y-78478095D01*
%TO.C,J2*%
X117776666Y-78692380D02*
X117776666Y-79406666D01*
X117729047Y-79549523D01*
X117633809Y-79644761D01*
X117490952Y-79692380D01*
X117395714Y-79692380D01*
X118205238Y-78787619D02*
X118252857Y-78740000D01*
X118348095Y-78692380D01*
X118586190Y-78692380D01*
X118681428Y-78740000D01*
X118729047Y-78787619D01*
X118776666Y-78882857D01*
X118776666Y-78978095D01*
X118729047Y-79120952D01*
X118157619Y-79692380D01*
X118776666Y-79692380D01*
%TO.C,J3*%
X130476666Y-77692380D02*
X130476666Y-78406666D01*
X130429047Y-78549523D01*
X130333809Y-78644761D01*
X130190952Y-78692380D01*
X130095714Y-78692380D01*
X130857619Y-77692380D02*
X131476666Y-77692380D01*
X131143333Y-78073333D01*
X131286190Y-78073333D01*
X131381428Y-78120952D01*
X131429047Y-78168571D01*
X131476666Y-78263809D01*
X131476666Y-78501904D01*
X131429047Y-78597142D01*
X131381428Y-78644761D01*
X131286190Y-78692380D01*
X131000476Y-78692380D01*
X130905238Y-78644761D01*
X130857619Y-78597142D01*
%TO.C,J4*%
X148256666Y-78192380D02*
X148256666Y-78906666D01*
X148209047Y-79049523D01*
X148113809Y-79144761D01*
X147970952Y-79192380D01*
X147875714Y-79192380D01*
X149161428Y-78525714D02*
X149161428Y-79192380D01*
X148923333Y-78144761D02*
X148685238Y-78859047D01*
X149304285Y-78859047D01*
%TO.C,J5*%
X140247619Y-117776666D02*
X139533333Y-117776666D01*
X139390476Y-117729047D01*
X139295238Y-117633809D01*
X139247619Y-117490952D01*
X139247619Y-117395714D01*
X140247619Y-118729047D02*
X140247619Y-118252857D01*
X139771428Y-118205238D01*
X139819047Y-118252857D01*
X139866666Y-118348095D01*
X139866666Y-118586190D01*
X139819047Y-118681428D01*
X139771428Y-118729047D01*
X139676190Y-118776666D01*
X139438095Y-118776666D01*
X139342857Y-118729047D01*
X139295238Y-118681428D01*
X139247619Y-118586190D01*
X139247619Y-118348095D01*
X139295238Y-118252857D01*
X139342857Y-118205238D01*
%TO.C,J6*%
X151852380Y-85423333D02*
X152566666Y-85423333D01*
X152709523Y-85470952D01*
X152804761Y-85566190D01*
X152852380Y-85709047D01*
X152852380Y-85804285D01*
X151852380Y-84518571D02*
X151852380Y-84709047D01*
X151900000Y-84804285D01*
X151947619Y-84851904D01*
X152090476Y-84947142D01*
X152280952Y-84994761D01*
X152661904Y-84994761D01*
X152757142Y-84947142D01*
X152804761Y-84899523D01*
X152852380Y-84804285D01*
X152852380Y-84613809D01*
X152804761Y-84518571D01*
X152757142Y-84470952D01*
X152661904Y-84423333D01*
X152423809Y-84423333D01*
X152328571Y-84470952D01*
X152280952Y-84518571D01*
X152233333Y-84613809D01*
X152233333Y-84804285D01*
X152280952Y-84899523D01*
X152328571Y-84947142D01*
X152423809Y-84994761D01*
%TO.C,J7*%
X159472380Y-118443333D02*
X160186666Y-118443333D01*
X160329523Y-118490952D01*
X160424761Y-118586190D01*
X160472380Y-118729047D01*
X160472380Y-118824285D01*
X159472380Y-118062380D02*
X159472380Y-117395714D01*
X160472380Y-117824285D01*
%TO.C,R1*%
X127452380Y-138596666D02*
X126976190Y-138930000D01*
X127452380Y-139168095D02*
X126452380Y-139168095D01*
X126452380Y-138787142D01*
X126500000Y-138691904D01*
X126547619Y-138644285D01*
X126642857Y-138596666D01*
X126785714Y-138596666D01*
X126880952Y-138644285D01*
X126928571Y-138691904D01*
X126976190Y-138787142D01*
X126976190Y-139168095D01*
X127452380Y-137644285D02*
X127452380Y-138215714D01*
X127452380Y-137930000D02*
X126452380Y-137930000D01*
X126595238Y-138025238D01*
X126690476Y-138120476D01*
X126738095Y-138215714D01*
%TO.C,R2*%
X120483333Y-84272380D02*
X120150000Y-83796190D01*
X119911904Y-84272380D02*
X119911904Y-83272380D01*
X120292857Y-83272380D01*
X120388095Y-83320000D01*
X120435714Y-83367619D01*
X120483333Y-83462857D01*
X120483333Y-83605714D01*
X120435714Y-83700952D01*
X120388095Y-83748571D01*
X120292857Y-83796190D01*
X119911904Y-83796190D01*
X120864285Y-83367619D02*
X120911904Y-83320000D01*
X121007142Y-83272380D01*
X121245238Y-83272380D01*
X121340476Y-83320000D01*
X121388095Y-83367619D01*
X121435714Y-83462857D01*
X121435714Y-83558095D01*
X121388095Y-83700952D01*
X120816666Y-84272380D01*
X121435714Y-84272380D01*
%TD*%
M02*
